HIERARCHY
ROOT Hips
{
	OFFSET 0.000000 0.000000 0.000000
	CHANNELS 6 Xposition Yposition Zposition Zrotation Yrotation Xrotation 
	JOINT LeftUpLeg_virtual
	{
		OFFSET 0.000000 0.000000 0.000000
		CHANNELS 3 Zrotation Yrotation Xrotation
		JOINT LeftUpLeg
		{
			OFFSET 8.479694 -4.795517 -0.379053
			CHANNELS 3 Zrotation Yrotation Xrotation
			JOINT LeftLeg
			{
				OFFSET 0.485052 -32.551468 0.112863
				CHANNELS 3 Zrotation Yrotation Xrotation
				JOINT LeftFoot
				{
					OFFSET 0.438033 -32.635670 -3.012641
					CHANNELS 3 Zrotation Yrotation Xrotation
					JOINT LeftToeBase
					{
						OFFSET 0.970169 -13.225353 11.864223
						CHANNELS 3 Zrotation Yrotation Xrotation
						End Site
						{
							OFFSET 0.000000 0.000000 0.000000
						}
					}
				}
			}
		}
	}
	JOINT RightUpLeg_virtual
	{
		OFFSET 0.000000 0.000000 0.000000
		CHANNELS 3 Zrotation Yrotation Xrotation
		JOINT RightUpLeg
		{
			OFFSET -8.479694 -4.795517 -0.379053
			CHANNELS 3 Zrotation Yrotation Xrotation
			JOINT RightLeg
			{
				OFFSET -0.484100 -32.551483 0.112903
				CHANNELS 3 Zrotation Yrotation Xrotation
				JOINT RightFoot
				{
					OFFSET -0.438985 -32.635651 -3.012681
					CHANNELS 3 Zrotation Yrotation Xrotation
					JOINT RightToeBase
					{
						OFFSET -0.970169 -13.225354 11.864223
						CHANNELS 3 Zrotation Yrotation Xrotation
						End Site
						{
							OFFSET 0.000000 0.000000 0.000000
						}
					}
				}
			}
		}
	}
	JOINT Spine_virtual
	{
		OFFSET 0.000000 0.000000 0.000000
		CHANNELS 3 Zrotation Yrotation Xrotation
		JOINT Spine
		{
			OFFSET 0.000000 7.722015 1.166203
			CHANNELS 3 Zrotation Yrotation Xrotation
			JOINT Spine1
			{
				OFFSET 0.000000 12.024086 0.248766
				CHANNELS 3 Zrotation Yrotation Xrotation
				JOINT Spine2
				{
					OFFSET -0.000000 11.503036 -0.491240
					CHANNELS 3 Zrotation Yrotation Xrotation
					JOINT Neck_virtual
					{
						OFFSET 0.000000 0.000000 0.000000
						CHANNELS 3 Zrotation Yrotation Xrotation
						JOINT Neck
						{
							OFFSET 0.000000 18.430687 -3.123054
							CHANNELS 3 Zrotation Yrotation Xrotation
							JOINT Head
							{
								OFFSET -0.000000 9.051071 1.034021
								CHANNELS 3 Zrotation Yrotation Xrotation
								End Site
								{
									OFFSET 0.000000 0.000000 0.000000
								}
							}
						}
					}
					JOINT LeftShoulder_virtual
					{
						OFFSET 0.000000 0.000000 0.000000
						CHANNELS 3 Zrotation Yrotation Xrotation
						JOINT LeftShoulder
						{
							OFFSET 6.197824 13.665230 -4.064723
							CHANNELS 3 Zrotation Yrotation Xrotation
							JOINT LeftArm
							{
								OFFSET 7.778132 -0.187073 -1.709282
								CHANNELS 3 Zrotation Yrotation Xrotation
								JOINT LeftForeArm
								{
									OFFSET 21.954697 0.000000 -2.041093
									CHANNELS 3 Zrotation Yrotation Xrotation
									JOINT LeftHand
									{
										OFFSET 22.992908 0.000000 -0.870901
										CHANNELS 3 Zrotation Yrotation Xrotation
										End Site
										{
											OFFSET 0.000000 0.000000 0.000000
										}
									}
								}
							}
						}
					}
					JOINT RightShoulder_virtual
					{
						OFFSET 0.000000 0.000000 0.000000
						CHANNELS 3 Zrotation Yrotation Xrotation
						JOINT RightShoulder
						{
							OFFSET -6.197824 13.665230 -4.064723
							CHANNELS 3 Zrotation Yrotation Xrotation
							JOINT RightArm
							{
								OFFSET -7.778132 -0.187073 -1.709282
								CHANNELS 3 Zrotation Yrotation Xrotation
								JOINT RightForeArm
								{
									OFFSET -21.954697 0.000000 -2.041093
									CHANNELS 3 Zrotation Yrotation Xrotation
									JOINT RightHand
									{
										OFFSET -22.992908 0.000000 -0.870901
										CHANNELS 3 Zrotation Yrotation Xrotation
										End Site
										{
											OFFSET 0.000000 0.000000 0.000000
										}
									}
								}
							}
						}
					}
				}
			}
		}
	}
}
MOTION
Frames: 10
Frame Time: 0.033333
9.180223 81.530823 -0.455893 179.715692 -4.971573 179.664424 -1.486730 -2.893512 8.565906 3.282038 0.028136 -29.087689 8.214527 8.247680 31.056474 -0.878042 -4.130916 -0.005332 0.000000 0.000000 0.000000 2.523342 -5.191107 7.859104 2.389192 0.303662 -23.592949 0.527976 1.963018 31.860958 5.360420 4.659033 -13.611035 0.000000 0.000000 0.000000 4.938982 -0.777600 -5.840120 -0.244238 2.168495 -1.403928 -1.596227 -2.382104 9.907091 0.012708 0.109834 -0.021403 -1.664973 -1.319907 10.509565 -0.937011 -0.998766 -5.297947 0.000000 0.000000 0.000000 -0.135404 -0.814104 7.118741 2.696692 2.235701 1.050731 -18.758701 -22.400068 -6.077430 -0.595348 -63.613185 5.754655 0.000000 0.000000 0.000000 -4.350737 0.714206 6.647782 33.555066 3.142144 6.642280 46.068472 9.651837 6.295016 -3.526167 29.570163 -0.944328 0.000000 0.000000 0.000000 
9.497547 81.526833 -0.431000 179.696048 -4.442887 179.647772 -1.515866 -2.830458 8.384260 3.575236 0.149042 -28.814563 8.126105 8.129109 31.060716 -0.902069 -4.310831 0.097992 0.000000 0.000000 0.000000 2.452154 -5.143606 7.771178 2.699947 0.130819 -23.306900 0.484597 1.933345 31.450941 5.658298 4.770867 -13.500734 0.000000 0.000000 0.000000 4.763316 -0.708088 -5.939697 -0.417571 2.060073 -1.405323 -1.613678 -2.370505 9.922409 0.071122 0.104824 -0.016179 -1.655566 -1.290461 10.464768 -1.008306 -1.050179 -5.228818 0.000000 0.000000 0.000000 -0.194956 -0.768958 7.028274 2.523555 1.839455 1.437235 -21.054704 -22.827358 -2.943385 0.274429 -70.077215 6.402759 0.000000 0.000000 0.000000 -4.290826 0.808084 6.623535 33.530341 3.008164 6.491045 46.877047 9.437094 7.567471 -3.289639 30.134088 -1.040979 0.000000 0.000000 0.000000 
9.781929 81.516121 -0.374265 179.726756 -3.631199 179.559430 -1.535362 -2.702739 8.169179 3.894909 0.347059 -28.508141 8.065514 8.019533 31.253614 -0.825679 -4.415024 0.117573 0.000000 0.000000 0.000000 2.386942 -5.034103 7.620123 3.026238 0.096127 -22.942144 0.444667 1.928822 31.057574 5.915561 4.940660 -13.284866 0.000000 0.000000 0.000000 4.585223 -0.556350 -5.963068 -0.607143 1.970904 -1.346384 -1.586189 -2.335342 9.977864 0.037896 0.136361 -0.022238 -1.610734 -1.263721 10.425918 -1.090584 -1.086103 -5.072497 0.000000 0.000000 0.000000 -0.107295 -0.803145 6.989666 2.510295 1.414877 1.674484 -23.375568 -23.647411 0.581440 0.323881 -76.963220 8.094893 0.000000 0.000000 0.000000 -4.339208 0.787724 6.558771 33.459997 2.889954 6.461019 47.823943 9.015978 8.954901 -3.117684 30.801554 -1.337402 0.000000 0.000000 0.000000 
10.053330 81.504845 -0.296884 179.722412 -2.632039 179.522807 -1.594330 -2.531907 7.934346 4.246618 0.577173 -28.250839 7.991763 7.904318 31.565207 -0.650006 -4.449452 0.059788 0.000000 0.000000 0.000000 2.297742 -4.836156 7.412932 3.359142 0.159900 -22.593588 0.392279 1.946809 30.682917 6.111288 5.153949 -12.987314 0.000000 0.000000 0.000000 4.371351 -0.433650 -5.935842 -0.740530 1.912449 -1.362298 -1.618485 -2.462713 9.942073 0.022006 0.046951 -0.068029 -1.718192 -1.250154 10.539731 -1.531166 -0.820681 -4.876693 0.000000 0.000000 0.000000 -0.193654 -0.816797 7.039984 2.565403 1.077214 1.888296 -25.438167 -24.729047 4.380690 -0.891939 -83.520257 11.202058 0.000000 0.000000 0.000000 -4.225219 0.797192 6.646359 33.362247 3.063243 6.468845 48.591926 8.509052 10.264977 -2.850792 31.249396 -1.600237 0.000000 0.000000 0.000000 
10.357896 81.497070 -0.217722 179.735595 -1.415231 179.674533 -1.659450 -2.292946 7.683940 4.668560 0.810239 -28.107758 7.912517 7.810656 31.841918 -0.402391 -4.430009 -0.087940 0.000000 0.000000 0.000000 2.217974 -4.504856 7.154075 3.739566 0.289216 -22.395176 0.345681 1.971336 30.293849 6.247155 5.402812 -12.557471 0.000000 0.000000 0.000000 4.109053 -0.159981 -5.991261 -0.846390 1.558768 -1.488708 -1.656086 -2.463447 9.871949 0.002016 0.085174 -0.018515 -1.776750 -1.353969 10.573950 -1.916745 -0.519222 -4.802822 0.000000 0.000000 0.000000 -0.251222 -0.870702 7.110471 2.736913 0.749926 2.139744 -27.313763 -26.270870 8.265153 -37.241381 -89.448922 49.524049 0.000000 0.000000 0.000000 -4.361519 0.818841 6.759041 33.258203 3.278612 6.467444 49.418072 7.932422 11.472877 -2.599775 31.673930 -1.975782 0.000000 0.000000 0.000000 
10.691931 81.492599 -0.137781 179.767464 -0.051093 179.645354 -1.743167 -1.946574 7.551642 5.131402 1.105033 -27.944361 7.840897 7.695627 32.205216 -0.117040 -4.372768 -0.231383 0.000000 0.000000 0.000000 2.139782 -4.085311 7.039916 4.150412 0.454760 -22.206133 0.312339 1.994132 30.011858 6.308902 5.677869 -12.098962 0.000000 0.000000 0.000000 3.881038 0.185342 -5.847558 -0.965842 1.347436 -1.652971 -1.751628 -2.528302 9.843480 0.075217 0.067129 -0.067136 -1.839040 -1.380658 10.527823 -2.343483 -0.330425 -4.454124 0.000000 0.000000 0.000000 -0.314550 -0.939520 7.057939 2.968955 0.461889 2.383942 -29.047944 -28.468640 12.083270 -171.382178 -85.774274 -174.326932 0.000000 0.000000 0.000000 -4.424903 0.698801 6.736501 33.084002 3.560938 6.488763 50.093079 7.284040 12.579910 -2.188206 31.926295 -2.273853 0.000000 0.000000 0.000000 
11.023770 81.487556 -0.063429 179.763161 1.409450 179.799703 -1.861622 -1.598021 7.455026 5.611267 1.327570 -27.848522 7.732792 7.606590 32.388757 0.178183 -4.288062 -0.452082 0.000000 0.000000 0.000000 2.020500 -3.666023 6.914515 4.570817 0.625060 -22.233181 0.280166 2.033103 29.832613 6.363258 6.002274 -11.410710 0.000000 0.000000 0.000000 3.573304 0.551536 -5.774632 -0.979165 1.064304 -1.967160 -1.831554 -2.621894 9.703983 0.001524 0.082015 -0.101334 -1.963153 -1.569930 10.591640 -2.927197 0.096642 -4.266408 0.000000 0.000000 0.000000 -0.332015 -1.031062 7.124055 3.213479 0.304214 2.452597 -30.561371 -31.207237 15.523676 -172.846311 -82.354248 -170.893191 0.000000 0.000000 0.000000 -4.511609 0.612798 6.793433 32.963272 3.842831 6.482453 50.605073 6.652753 13.326638 -1.812593 31.855316 -2.596009 0.000000 0.000000 0.000000 
11.322927 81.479424 -0.003446 179.774213 3.004359 179.883059 -1.976199 -1.234752 7.402618 6.065972 1.609048 -27.731656 7.644798 7.534328 32.595606 0.467088 -4.174978 -0.677720 0.000000 0.000000 0.000000 1.892254 -3.284332 6.889958 4.987064 0.831297 -22.355908 0.271872 2.098856 29.874414 6.414736 6.381261 -10.694514 0.000000 0.000000 0.000000 3.316510 0.899845 -5.648625 -0.960373 0.820297 -2.299480 -1.931902 -2.719151 9.563412 0.066720 0.065601 -0.004755 -2.078042 -1.505526 10.408393 -3.531344 0.579828 -3.998911 0.000000 0.000000 0.000000 -0.446479 -1.174632 7.038520 3.384830 0.260478 2.480848 -32.248277 -34.553948 18.682108 -174.138965 -80.132114 -167.679013 0.000000 0.000000 0.000000 -4.586438 0.545573 6.802428 32.760627 4.165457 6.500622 50.849437 5.997509 13.779561 -1.480106 31.682276 -2.986010 0.000000 0.000000 0.000000 
11.554176 81.466415 0.034696 179.790537 4.665952 179.936334 -2.092870 -0.902592 7.362205 6.449390 1.949636 -27.590611 7.588443 7.499491 32.865429 0.745700 -4.032207 -0.898236 0.000000 0.000000 0.000000 1.744943 -2.923176 6.910142 5.356461 1.070942 -22.522784 0.283280 2.206553 29.956530 6.456139 6.797970 -10.146792 0.000000 0.000000 0.000000 3.066600 1.238074 -5.482002 -0.877633 0.572938 -2.646188 -2.010196 -2.805823 9.430049 0.047771 0.088555 0.026849 -2.134073 -1.545900 10.309190 -4.143155 0.988886 -3.633889 0.000000 0.000000 0.000000 -0.468753 -1.274587 7.002113 3.496183 0.394828 2.403008 -33.942444 -38.776268 21.658146 -173.253622 -78.872682 -166.780830 0.000000 0.000000 0.000000 -4.583289 0.301548 6.741496 32.430961 4.505034 6.472832 51.067303 5.310274 13.878048 -1.087806 31.239701 -3.296041 0.000000 0.000000 0.000000 
11.727535 81.449883 0.062844 179.800809 6.405236 179.995565 -2.200553 -0.595676 7.310619 6.767417 2.308001 -27.426302 7.549458 7.485426 33.171650 0.997631 -3.876675 -1.130224 0.000000 0.000000 0.000000 1.583828 -2.540358 6.980362 5.673997 1.308423 -22.692848 0.318860 2.364274 29.992870 6.521208 7.247511 -9.710684 0.000000 0.000000 0.000000 2.861934 1.542223 -5.299699 -0.771289 0.298045 -2.997089 -2.063022 -2.909510 9.292512 0.023265 0.106496 0.031367 -2.169026 -1.655766 10.190807 -4.638840 1.408199 -3.295295 0.000000 0.000000 0.000000 -0.536832 -1.418116 6.934289 3.585974 0.584310 2.329623 -36.043864 -43.470486 24.762748 -174.698330 -78.129940 -163.754578 0.000000 0.000000 0.000000 -4.660162 0.357149 6.559448 32.098109 4.680190 6.397442 51.161928 4.433065 13.625475 -0.765323 30.712106 -3.657927 0.000000 0.000000 0.000000 
